HIERARCHY
ROOT hip
{
  OFFSET 0 0 0
  CHANNELS 6 Xposition Yposition Zposition Zrotation Yrotation Xrotation
  JOINT abdomen
  {
    OFFSET 0 20.6881 -0.73152
    CHANNELS 3 Zrotation Xrotation Yrotation
    JOINT chest
    {
      OFFSET 0 11.7043 -0.48768
      CHANNELS 3 Zrotation Xrotation Yrotation
      JOINT neck
      {
        OFFSET 0 22.1894 -2.19456
        CHANNELS 3 Zrotation Xrotation Yrotation
        JOINT head
        {
          OFFSET -0.24384 7.07133 1.2192
          CHANNELS 3 Zrotation Xrotation Yrotation
          JOINT leftEye
          {
            OFFSET 4.14528 8.04674 8.04672
            CHANNELS 3 Zrotation Xrotation Yrotation
            End Site
            {
              OFFSET 1 0 0
            }
          }
          JOINT rightEye
          {
            OFFSET -3.6576 8.04674 8.04672
            CHANNELS 3 Zrotation Xrotation Yrotation
            End Site
            {
              OFFSET 1 0 0
            }
          }
        }
      }
      JOINT rCollar
      {
        OFFSET -2.68224 19.2634 -4.8768
        CHANNELS 3 Zrotation Xrotation Yrotation
        JOINT rShldr
        {
          OFFSET -8.77824 -1.95073 1.46304
          CHANNELS 3 Zrotation Xrotation Yrotation
          JOINT rForeArm
          {
            OFFSET -28.1742 -1.7115 0.48768
            CHANNELS 3 Zrotation Xrotation Yrotation
            JOINT rHand
            {
              OFFSET -22.5879 0.773209 7.07136
              CHANNELS 3 Zrotation Xrotation Yrotation
              JOINT rThumb1
              {
                OFFSET -1.2192 -0.487915 3.41376
                CHANNELS 3 Zrotation Xrotation Yrotation
                JOINT rThumb2
                {
                  OFFSET -3.37035 -0.52449 3.41376
                  CHANNELS 3 Zrotation Xrotation Yrotation
                  End Site
                  {
                    OFFSET -1.78271 -1.18214 1.43049
                  }
                }
              }
              JOINT rIndex1
              {
                OFFSET -7.75947 0.938293 5.60832
                CHANNELS 3 Zrotation Xrotation Yrotation
                JOINT rIndex2
                {
                  OFFSET -2.54057 -0.884171 1.56538
                  CHANNELS 3 Zrotation Xrotation Yrotation
                  End Site
                  {
                    OFFSET -1.62519 -0.234802 1.16502
                  }
                }
              }
              JOINT rMid1
              {
                OFFSET -8.24714 1.18213 3.41376
                CHANNELS 3 Zrotation Xrotation Yrotation
                JOINT rMid2
                {
                  OFFSET -3.10165 -0.590103 1.0647
                  CHANNELS 3 Zrotation Xrotation Yrotation
                  End Site
                  {
                    OFFSET -2.48547 -0.328903 0.83742
                  }
                }
              }
              JOINT rRing1
              {
                OFFSET -8.82822 0.546677 1.51678
                CHANNELS 3 Zrotation Xrotation Yrotation
                JOINT rRing2
                {
                  OFFSET -2.60934 -0.819778 -0.0198488
                  CHANNELS 3 Zrotation Xrotation Yrotation
                  End Site
                  {
                    OFFSET -2.33842 -0.294052 0.168128
                  }
                }
              }
              JOINT rPinky1
              {
                OFFSET -8.27202 -0.0477905 -0.4584
                CHANNELS 3 Zrotation Xrotation Yrotation
                JOINT rPinky2
                {
                  OFFSET -1.82734 -0.647385 -0.700984
                  CHANNELS 3 Zrotation Xrotation Yrotation
                  End Site
                  {
                    OFFSET -1.69225 -0.51767 -0.607171
                  }
                }
              }
            }
          }
        }
      }
      JOINT lCollar
      {
        OFFSET 2.68224 19.2634 -4.8768
        CHANNELS 3 Zrotation Xrotation Yrotation
        JOINT lShldr
        {
          OFFSET 8.77824 -1.95073 1.46304
          CHANNELS 3 Zrotation Xrotation Yrotation
          JOINT lForeArm
          {
            OFFSET 28.1742 -1.7115 0.48768
            CHANNELS 3 Zrotation Xrotation Yrotation
            JOINT lHand
            {
              OFFSET 22.5879 0.773209 7.07136
              CHANNELS 3 Zrotation Xrotation Yrotation
              JOINT lThumb1
              {
                OFFSET 1.2192 -0.487915 3.41376
                CHANNELS 3 Zrotation Xrotation Yrotation
                JOINT lThumb2
                {
                  OFFSET 3.37035 -0.52449 3.41376
                  CHANNELS 3 Zrotation Xrotation Yrotation
                  End Site
                  {
                    OFFSET 1.78271 -1.18214 1.43049
                  }
                }
              }
              JOINT lIndex1
              {
                OFFSET 7.75947 0.938293 5.60832
                CHANNELS 3 Zrotation Xrotation Yrotation
                JOINT lIndex2
                {
                  OFFSET 2.54057 -0.884171 1.56538
                  CHANNELS 3 Zrotation Xrotation Yrotation
                  End Site
                  {
                    OFFSET 1.62519 -0.234802 1.16502
                  }
                }
              }
              JOINT lMid1
              {
                OFFSET 8.24714 1.18213 3.41376
                CHANNELS 3 Zrotation Xrotation Yrotation
                JOINT lMid2
                {
                  OFFSET 3.10165 -0.590103 1.0647
                  CHANNELS 3 Zrotation Xrotation Yrotation
                  End Site
                  {
                    OFFSET 2.48547 -0.328903 0.83742
                  }
                }
              }
              JOINT lRing1
              {
                OFFSET 8.82822 0.546677 1.51678
                CHANNELS 3 Zrotation Xrotation Yrotation
                JOINT lRing2
                {
                  OFFSET 2.60934 -0.819778 -0.0198488
                  CHANNELS 3 Zrotation Xrotation Yrotation
                  End Site
                  {
                    OFFSET 2.33842 -0.294052 0.168128
                  }
                }
              }
              JOINT lPinky1
              {
                OFFSET 8.27202 -0.0477905 -0.4584
                CHANNELS 3 Zrotation Xrotation Yrotation
                JOINT lPinky2
                {
                  OFFSET 1.82734 -0.647385 -0.700984
                  CHANNELS 3 Zrotation Xrotation Yrotation
                  End Site
                  {
                    OFFSET 1.69225 -0.51767 -0.607171
                  }
                }
              }
            }
          }
        }
      }
    }
  }
  JOINT rButtock
  {
    OFFSET -8.77824 4.35084 1.2192
    CHANNELS 3 Zrotation Xrotation Yrotation
    JOINT rThigh
    {
      OFFSET 0 -1.70687 -2.19456
      CHANNELS 3 Zrotation Xrotation Yrotation
      JOINT rShin
      {
        OFFSET 0 -36.8199 0.73152
        CHANNELS 3 Zrotation Xrotation Yrotation
        JOINT rFoot
        {
          OFFSET 0.73152 -45.1104 -5.12064
          CHANNELS 3 Zrotation Xrotation Yrotation
          End Site
          {
            OFFSET -1.1221 -3.69964 12.103
          }
        }
      }
    }
  }
  JOINT lButtock
  {
    OFFSET 8.77824 4.35084 1.2192
    CHANNELS 3 Zrotation Xrotation Yrotation
    JOINT lThigh
    {
      OFFSET 0 -1.70687 -2.19456
      CHANNELS 3 Zrotation Xrotation Yrotation
      JOINT lShin
      {
        OFFSET 0 -36.8199 0.73152
        CHANNELS 3 Zrotation Xrotation Yrotation
        JOINT lFoot
        {
          OFFSET -0.73152 -45.1104 -5.12064
          CHANNELS 3 Zrotation Xrotation Yrotation
          End Site
          {
            OFFSET 1.1221 -3.69964 12.103
          }
        }
      }
    }
  }
}
MOTION
Frames:	4
Frame Time:	0.00833333
100.244 48.2047 17.5848 178.132 -84.9336 -193.46 -3.07806 51.6727 5.07899 1.39955 2.83031 -0.699477 -1.35865 -1.24799 8.33867 -18.0877 11.7326 16.9626 -0.0 0.0 0.0 -0.0 0.0 0.0 3.73274e-15 -7.05053e-13 1.97294e-14 44.833 32.66 42.9462 -27.0578 -26.5329 61.73 -0.0135855 3.32574 0.467933 2.17055e-09 -8.55167e-10 -1.48037e-09 3.74993e-09 -1.4799e-09 -2.56808e-09 2.17055e-09 -8.55169e-10 -1.48038e-09 7.73091 5.47488 0.417314 2.17055e-09 -8.55166e-10 -1.48036e-09 2.90554 0.965183 0.102902 2.17055e-09 -8.55167e-10 -1.48036e-09 10.2786 0.731801 0.0259123 2.17055e-09 -8.55167e-10 -1.48035e-09 2.22167 -0.733487 -0.20892 3.82131e-15 -7.0505e-13 1.94809e-14 -48.7371 36.5487 -42.5777 27.2936 -27.3728 -63.0672 0.257677 14.3016 -2.05322 -2.83119e-09 -2.1838e-09 1.10868e-09 -4.88131e-09 -3.78349e-09 1.95085e-09 -2.83121e-09 -2.18381e-09 1.1087e-09 -7.73091 5.47488 -0.417314 -2.83119e-09 -2.1838e-09 1.10869e-09 -2.90554 0.965183 -0.102902 -2.83119e-09 -2.1838e-09 1.10869e-09 -10.2786 0.731801 -0.0259123 -2.83119e-09 -2.1838e-09 1.10868e-09 -2.22167 -0.733487 0.20892 -2.03217e-16 0.0 -3.88251e-19 -18.923 -52.3896 -14.7551 -1.05875 65.5985 3.19236 2.23263 3.74995 -3.44369 2.03217e-16 0.0 3.88251e-19 24.8769 -48.9273 14.1679 0.823468 62.9762 -3.11751 -0.956087 4.33469 -10.2091
100.266 48.2175 17.5141 179.47 -84.8681 -194.715 -3.45013 51.4489 5.14523 1.60115 2.8646 -0.721823 -1.54829 -1.18815 8.28349 -17.8281 11.5398 16.8587 -0.0 0.0 0.0 -0.0 0.0 0.0 -1.91923e-15 -7.91156e-16 3.31489e-15 44.8363 32.7072 42.9424 -27.0503 -26.5073 61.6891 -0.0146914 3.46013 0.486887 2.75863e-09 -1.02769e-09 -1.65613e-09 4.76592e-09 -1.7783e-09 -2.87326e-09 2.75863e-09 -1.02769e-09 -1.65613e-09 7.73091 5.47488 0.417314 2.75863e-09 -1.02769e-09 -1.65611e-09 2.90554 0.965183 0.102902 2.75863e-09 -1.02769e-09 -1.65612e-09 10.2786 0.731801 0.0259123 2.75863e-09 -1.02769e-09 -1.65611e-09 2.22167 -0.733487 -0.20892 -1.77086e-15 -7.8751e-16 3.09592e-15 -49.0062 36.5206 -42.4535 27.2913 -27.3641 -63.053 0.26086 14.3883 -2.0662 -3.25927e-09 -2.53415e-09 1.21898e-09 -5.61941e-09 -4.39031e-09 2.14638e-09 -3.25928e-09 -2.53414e-09 1.21899e-09 -7.73091 5.47488 -0.417314 -3.25927e-09 -2.53414e-09 1.21899e-09 -2.90554 0.965183 -0.102902 -3.25927e-09 -2.53415e-09 1.21899e-09 -10.2786 0.731801 -0.0259123 -3.25927e-09 -2.53415e-09 1.21898e-09 -2.22167 -0.733487 0.20892 -2.03217e-16 0.0 -3.88251e-19 -19.3465 -52.6141 -14.8934 -1.06754 65.7311 3.20886 2.24144 3.68638 -3.46417 2.03217e-16 0.0 3.88251e-19 24.6321 -49.0777 14.1344 0.820859 62.9382 -3.11558 -0.967834 4.35461 -10.0984
100.296 48.2362 17.6213 177.557 -84.9776 -192.542 -3.6322 51.2734 5.132 1.71613 2.87678 -0.740083 -1.68852 -1.10917 8.22815 -17.6456 11.3618 16.7465 -0.0 0.0 0.0 -0.0 0.0 0.0 -5.64831e-15 4.36505e-13 -7.05686e-15 44.8478 32.7655 42.8907 -27.0492 -26.5035 61.683 -0.0154379 3.54502 0.498863 2.56209e-09 -9.21951e-10 -1.41413e-09 4.42658e-09 -1.59532e-09 -2.45372e-09 2.5621e-09 -9.21951e-10 -1.41414e-09 7.73091 5.47488 0.417314 2.56209e-09 -9.21947e-10 -1.41412e-09 2.90554 0.965183 0.102902 2.5621e-09 -9.2195e-10 -1.41412e-09 10.2786 0.731801 0.0259123 2.56209e-09 -9.21951e-10 -1.41411e-09 2.22167 -0.733487 -0.20892 -5.48402e-15 4.36509e-13 -7.25564e-15 -49.2179 36.5171 -42.3533 27.2901 -27.3595 -63.0455 0.264019 14.4735 -2.07898 -2.95083e-09 -2.33513e-09 1.11759e-09 -5.08705e-09 -4.04519e-09 1.96725e-09 -2.95084e-09 -2.33513e-09 1.11759e-09 -7.73091 5.47488 -0.417314 -2.95083e-09 -2.33513e-09 1.11759e-09 -2.90554 0.965183 -0.102902 -2.95083e-09 -2.33513e-09 1.11759e-09 -10.2786 0.731801 -0.0259123 -2.95083e-09 -2.33513e-09 1.11758e-09 -2.22167 -0.733487 0.20892 -2.03217e-16 0.0 -3.88251e-19 -19.7144 -52.7913 -15.1096 -1.0731 65.8164 3.21998 2.24555 3.66897 -3.43305 2.03217e-16 0.0 3.88251e-19 24.4271 -49.2335 14.0479 0.820197 62.9268 -3.11473 -0.977736 4.36657 -9.99502
100.313 48.2168 17.7716 176.36 -85.2768 -191.089 -3.4937 51.1527 4.96174 1.68816 2.85777 -0.755992 -1.74974 -0.985686 8.17196 -17.6024 11.1789 16.6166 -0.0 0.0 0.0 -0.0 0.0 0.0 -6.83452e-15 4.90449e-13 -8.79622e-15 44.8606 32.849 42.7587 -27.0593 -26.5378 61.7371 -0.0154822 3.54874 0.499389 1.01303e-09 -3.32298e-10 -4.43612e-10 1.75093e-09 -5.75199e-10 -7.70392e-10 1.01303e-09 -3.32297e-10 -4.43618e-10 7.73091 5.47488 0.417314 1.01302e-09 -3.32293e-10 -4.436e-10 2.90554 0.965183 0.102902 1.01303e-09 -3.32296e-10 -4.43608e-10 10.2786 0.731801 0.0259123 1.01302e-09 -3.32296e-10 -4.43598e-10 2.22167 -0.733487 -0.20892 -6.72679e-15 4.90453e-13 -8.98569e-15 -49.3455 36.558 -42.2834 27.2914 -27.3643 -63.0532 0.267177 14.5579 -2.09164 -1.3721e-09 -1.19752e-09 6.62978e-10 -2.36334e-09 -2.07351e-09 1.16257e-09 -1.37211e-09 -1.19751e-09 6.62979e-10 -7.73091 5.47488 -0.417314 -1.3721e-09 -1.19751e-09 6.62973e-10 -2.90554 0.965183 -0.102902 -1.37211e-09 -1.19751e-09 6.6298e-10 -10.2786 0.731801 -0.0259123 -1.3721e-09 -1.19751e-09 6.62971e-10 -2.22167 -0.733487 0.20892 -2.03217e-16 0.0 -3.88251e-19 -20.0582 -52.9157 -15.5029 -1.07451 65.8431 3.22428 2.24202 3.72219 -3.31058 2.03217e-16 0.0 3.88251e-19 24.2461 -49.4313 13.847 0.822767 62.9601 -3.11584 -0.98473 4.37163 -9.8911
